<?xml version="1.0" encoding="iso-8859-1"?>
<!-- Generator: Adobe Illustrator 19.0.0, SVG Export Plug-In . SVG Version: 6.00 Build 0)  -->
<svg xmlns="http://www.w3.org/2000/svg" xmlns:xlink="http://www.w3.org/1999/xlink" version="1.1" id="Layer_1" x="0px" y="0px" viewBox="0 0 512.001 512.001" style="enable-background:new 0 0 512.001 512.001;" xml:space="preserve" width="512px" height="512px">
<g>
	<g>
		<path d="M149.037,192.589H41.364V84.916c0-11.422-9.26-20.682-20.682-20.682C9.26,64.234,0,73.494,0,84.916v128.355    c0,11.422,9.26,20.682,20.682,20.682h128.355c11.423,0,20.682-9.26,20.682-20.682    C169.719,201.849,160.459,192.589,149.037,192.589z" fill="#FFFFFF"/>
	</g>
</g>
<g>
	<g>
		<path d="M491.318,278.16H362.962c-11.423,0-20.682,9.259-20.682,20.682s9.259,20.682,20.682,20.682h107.674v107.672    c0,11.423,9.259,20.682,20.682,20.682c11.423,0,20.682-9.259,20.682-20.681V298.842C512,287.419,502.741,278.16,491.318,278.16z" fill="#FFFFFF"/>
	</g>
</g>
<g>
	<g>
		<path d="M457.12,184.979c-18.999-53.69-57.77-96.767-109.167-121.297c-51.399-24.53-109.273-27.575-162.962-8.577    c-29.682,10.504-57.145,27.802-79.439,50.037L6.52,198.199c-8.324,7.822-8.732,20.91-0.91,29.235    c4.07,4.332,9.566,6.52,15.076,6.52c5.078,0,10.166-1.859,14.159-5.61l99.262-93.27c0.158-0.148,0.313-0.298,0.466-0.451    c18.004-18.014,40.21-32.024,64.218-40.521c89.33-31.612,187.723,15.347,219.335,104.678    c3.812,10.768,15.633,16.409,26.397,12.598C455.291,207.565,460.931,195.747,457.12,184.979z" fill="#FFFFFF"/>
	</g>
</g>
<g>
	<g>
		<path d="M506.391,284.679c-7.822-8.325-20.912-8.732-29.235-0.91l-99.261,93.271c-0.158,0.148-0.313,0.299-0.466,0.451    c-32.45,32.466-75.6,50.352-121.504,50.364c-0.017,0-0.027,0-0.044,0c-45.884,0-89.031-17.866-121.486-50.304    c-18.013-18.003-32.024-40.209-40.521-64.218c-3.811-10.768-15.63-16.408-26.397-12.598    c-10.768,3.811-16.409,15.628-12.598,26.397c10.541,29.789,27.925,57.339,50.273,79.676    c40.268,40.249,93.793,62.412,150.727,62.411c0.017,0,0.037,0,0.054,0.001c56.841-0.015,110.282-22.122,150.516-62.253    l99.031-93.054C513.805,306.092,514.214,293.003,506.391,284.679z" fill="#FFFFFF"/>
	</g>
</g>
<g>
</g>
<g>
</g>
<g>
</g>
<g>
</g>
<g>
</g>
<g>
</g>
<g>
</g>
<g>
</g>
<g>
</g>
<g>
</g>
<g>
</g>
<g>
</g>
<g>
</g>
<g>
</g>
<g>
</g>
</svg>
